<svg xmlns="http://www.w3.org/2000/svg" width="100" height="100" viewBox="0 0 100 100"><title> line-icons</title><path d="M91.9,80.17,78,62.6a35.61,35.61,0,1,0-55.9,0L8.1,80.17a1.79,1.79,0,0,0,1.61,2.9l11.67-1.33L22.73,93.4A1.79,1.79,0,0,0,24,94.93a1.66,1.66,0,0,0,.49.07,1.78,1.78,0,0,0,1.41-.68L41.21,75.07a34.46,34.46,0,0,0,17.58,0L74.08,94.32a1.78,1.78,0,0,0,1.41.68,1.66,1.66,0,0,0,.49-.07,1.79,1.79,0,0,0,1.29-1.53l1.34-11.66,11.68,1.33a1.79,1.79,0,0,0,1.61-2.9ZM25.8,88.68l-1.05-9.14a1.81,1.81,0,0,0-2-1.59l-9.14,1L24.45,65.35a35.62,35.62,0,0,0,13.08,8.56ZM18,40.61a32,32,0,1,1,32,32A32,32,0,0,1,18,40.61ZM77.24,78a1.82,1.82,0,0,0-2,1.59l-1.06,9.14L62.47,73.91a35.5,35.5,0,0,0,13.07-8.56L86.38,79Z"/><path d="M66.08,34.05l-9.54-1.39L52.27,24a2.53,2.53,0,0,0-4.54,0l-4.27,8.64-9.54,1.39a2.53,2.53,0,0,0-1.4,4.32l6.9,6.73-1.63,9.5a2.54,2.54,0,0,0,2.5,3,2.58,2.58,0,0,0,1.18-.3L50,52.78l8.53,4.49a2.58,2.58,0,0,0,1.18.3,2.54,2.54,0,0,0,2.5-3l-1.63-9.5,6.9-6.73A2.53,2.53,0,0,0,66.08,34.05Zm-8,8.47a3.61,3.61,0,0,0-1,3.19l1.26,7.37L51.67,49.6A3.51,3.51,0,0,0,50,49.18a3.58,3.58,0,0,0-1.68.42L41.7,53.08,43,45.71a3.61,3.61,0,0,0-1-3.19L36.58,37.3,44,36.22a3.59,3.59,0,0,0,2.71-2L50,27.55l3.31,6.71a3.59,3.59,0,0,0,2.71,2l7.4,1.08Z"/></svg>