<svg xmlns="http://www.w3.org/2000/svg" width="100" height="100" viewBox="0 0 100 100"><title> line-icons</title><path d="M79.24,51.41A1.41,1.41,0,0,1,77.83,50a27.83,27.83,0,0,0-55.66,0,1.41,1.41,0,1,1-2.82,0,30.65,30.65,0,0,1,61.3,0A1.41,1.41,0,0,1,79.24,51.41Z"/><path d="M50,92.23A42.23,42.23,0,1,1,92.27,50,42.29,42.29,0,0,1,50,92.23Zm0-81.64A39.41,39.41,0,1,0,89.45,50,39.47,39.47,0,0,0,50,10.59Z"/><path d="M50,76.11a7.4,7.4,0,1,1,7.4-7.39A7.41,7.41,0,0,1,50,76.11Zm0-12a4.58,4.58,0,1,0,4.58,4.58A4.58,4.58,0,0,0,50,64.14Z"/><path d="M50,64.14a1.41,1.41,0,0,1-1.41-1.41V31.27a1.41,1.41,0,1,1,2.82,0V62.73A1.41,1.41,0,0,1,50,64.14Z"/></svg>