<svg xmlns="http://www.w3.org/2000/svg" width="100" height="100" viewBox="0 0 100 100"><title> line-icons</title><path d="M89,11a18.24,18.24,0,0,0-25.77,0l-4.13,4.13v0L11.43,62.8a2,2,0,0,0-.47.9s-.05.07-.06.12L5.66,92.09a2,2,0,0,0,.54,1.72,1.92,1.92,0,0,0,1.36.56,2.07,2.07,0,0,0,.35,0l28.28-5.23s.07,0,.11-.06a2,2,0,0,0,.9-.48L89,36.73A18.25,18.25,0,0,0,89,11Zm-72,51.67,44.2-44.2A21.11,21.11,0,0,1,81.57,38.75L37.37,82.94A25,25,0,0,0,17.06,62.63Zm-2.67,3.55A21.12,21.12,0,0,1,33.83,85.62L10,90ZM85.08,35.24A25,25,0,0,0,64.76,14.93L66,13.69a14.7,14.7,0,0,1,20.31,0,14.38,14.38,0,0,1,0,20.31Z"/></svg>