<svg xmlns="http://www.w3.org/2000/svg" width="100" height="100" viewBox="0 0 100 100"><title> line-icons</title><path d="M96.26,31.41a1.79,1.79,0,0,0-1.38-.65H69.25V22.44a8.37,8.37,0,0,0-8.36-8.36H39.11a8.37,8.37,0,0,0-8.36,8.36v8.32H5.12a1.8,1.8,0,0,0-1.77,2.12l8.22,45a8.07,8.07,0,0,0,8.05,8.06H80.38a8,8,0,0,0,8-7.73l8.25-45.31A1.79,1.79,0,0,0,96.26,31.41ZM89.41,52.68,59.77,82.33H28l48-48H92.73ZM34.34,22.44a4.78,4.78,0,0,1,4.77-4.77H60.89a4.78,4.78,0,0,1,4.77,4.77v8.32H34.34ZM34,34.36,11.38,56.93,7.27,34.36ZM15.13,77.54l-3-16.43a1.5,1.5,0,0,0,.42-.29L39,34.36H70.84l-48,48H19.62A4.59,4.59,0,0,1,15.13,77.54Zm69.71.32a4.47,4.47,0,0,1-4.46,4.47H64.84L88.29,58.88Z"/></svg>