<svg xmlns="http://www.w3.org/2000/svg" width="100" height="100" viewBox="0 0 100 100"><title> line-icons</title><path d="M96.83,55.18c-.57-5-4.26-10-9.1-12.54a9.82,9.82,0,0,0,2.09-6,10,10,0,0,0-20,0,9.86,9.86,0,0,0,2.11,6,18.21,18.21,0,0,0-5.65,4.72,31,31,0,0,0-2.86-1.49,18.38,18.38,0,0,0,5.07-12.53,18.45,18.45,0,0,0-36.89,0A18.33,18.33,0,0,0,36.64,45.9a31.54,31.54,0,0,0-2.89,1.49,18.21,18.21,0,0,0-5.65-4.72,9.86,9.86,0,0,0,2.11-6,10.14,10.14,0,0,0-10-10,10.15,10.15,0,0,0-10,10,9.82,9.82,0,0,0,2.09,6c-4.84,2.54-8.53,7.51-9.1,12.54C2.77,58.61,4.88,61.1,8.94,62a50.31,50.31,0,0,0,10.59,1.24,26.44,26.44,0,0,0-2,7.31c-.69,6,3,10.3,10.32,12A99.73,99.73,0,0,0,50,85.07a99.75,99.75,0,0,0,22.17-2.5c7.34-1.69,11-5.94,10.31-12a26.39,26.39,0,0,0-2-7.31A50,50,0,0,0,91.06,62C95.12,61.1,97.23,58.61,96.83,55.18Zm-17-25.36A6.84,6.84,0,1,1,73,36.66,6.94,6.94,0,0,1,79.8,29.82Zm-45,3.55a15.27,15.27,0,1,1,30.53,0,15.27,15.27,0,1,1-30.53,0ZM20.2,29.82a6.84,6.84,0,1,1-6.84,6.84A6.94,6.94,0,0,1,20.2,29.82ZM9.65,58.94c-3.62-.83-3.41-2.7-3.32-3.4.49-4.3,4.06-8.68,8.44-10.53a9.65,9.65,0,0,0,10.84,0,14.8,14.8,0,0,1,5.45,4.08,34.84,34.84,0,0,0-10,11A46.45,46.45,0,0,1,9.65,58.94ZM71.47,79.47a96.51,96.51,0,0,1-42.91,0c-8.62-2-8.06-6.91-7.87-8.53,1.07-9.38,9-19,18.63-22.67a17.91,17.91,0,0,0,21.38,0C70.31,52,78.26,61.56,79.34,70.94,79.52,72.56,80.09,77.49,71.47,79.47ZM90.35,58.94A46.25,46.25,0,0,1,78.93,60.1a34.83,34.83,0,0,0-10-11A14.8,14.8,0,0,1,74.39,45a9.65,9.65,0,0,0,10.84,0c4.38,1.85,8,6.23,8.44,10.53C93.76,56.24,94,58.11,90.35,58.94Z"/></svg>