<svg xmlns="http://www.w3.org/2000/svg" width="148.04mm" height="50.11mm" viewBox="0 0 419.64 142.04"><defs><style>.a{fill:#3ed0c7;}</style></defs><title>XTEND-BRAND</title><path class="a" d="M366.5,27.14h-61c-.17,0-.33,0-.5,0a10.31,10.31,0,0,0-7.13,2.67l-.36.34-.24.25c-.18.19-.35.4-.51.6l-.11.15c-.13.18-.26.36-.38.55l-.26.42-.06.12a12.07,12.07,0,0,0-1.51,6v64.23L240.75,32.22c-2.65-3.17-5.11-5.11-9.16-5.11-6.51,0-10.55,4.76-10.55,11.09v84H161.49V93.48h33.26c6.16,0,10.73-4,10.73-10.21,0-6-4.57-10-10.73-10H161.49V47h41.36c6.33,0,10.55-4,10.55-9.85,0-6-4.22-10-10.55-10H74c-6.16,0-10.55,4.05-10.55,10s4.39,10,10.55,10H98.32V131c0,6.33,4.22,11.08,10.55,11.08,6.51,0,10.56-4.75,10.56-11.08V47.2h21.65V131c0,6.33,4,11.08,10.56,11.08h52.09l.47,0h25.54c.35,0,.69,0,1,0s.55,0,.83,0c6.34,0,10.56-4.75,10.56-11.09V67.41L296.7,138.5A10.37,10.37,0,0,0,305,142c6.51,0,10.56-4.75,10.56-11.09V47h51c22.35,0,32,15.84,32,37.48,0,21.47-9.5,37.66-31.84,37.66H346.44V63.46c0-6.43-4.23-11-10.47-11S325.5,57,325.5,63.46V131c0,6.33,4.05,11.08,10.56,11.08h30.62c32,0,53-22.52,53-57.54C419.64,49.31,398.52,27.14,366.5,27.14Z"/><path class="a" d="M56,81.49,75.77,53.37H74c-7.47,0-13.34-4.06-15.65-10.21l-14,20.91L24,32.4c-3.17-5.11-9.5-7-15-3.35-5.28,3.7-6.33,10-2.64,15.14l26.22,37.3L2.2,124.78c-3.7,5.28-2.64,11.61,2.46,15.31,5.46,3.69,11.79,1.76,15.13-3.52L44.43,98.74l24.46,37.83c3.34,5.28,9.85,7.21,15.13,3.52,5.1-3.7,6.34-10,2.46-15.31Z"/><path class="a" d="M98.5,21l2.81-4A10.34,10.34,0,0,0,98.67,1.84a10.49,10.49,0,0,0-15,3.34L73.15,21c.3,0,.59,0,.88,0Z"/></svg>